HIERARCHY
ROOT RootJoint
{
    OFFSET   0.000000   0.000000   0.000000
    CHANNELS 6 Xposition Yposition Zposition Xrotation Yrotation Zrotation
    JOINT pelvis_lowerback
    {
        OFFSET   0.000000   0.093605   0.000000
        CHANNELS 3 Xrotation Yrotation Zrotation
        JOINT lowerback_torso
        {
            OFFSET   0.000000   0.100000   0.000000
            CHANNELS 3 Xrotation Yrotation Zrotation
            JOINT torso_head
            {
                OFFSET   0.000000   0.282350   0.000000
                CHANNELS 3 Xrotation Yrotation Zrotation
                End Site
                {
                    OFFSET   0.000000   0.192650   0.000000
                }
            }
            JOINT rTorso_Clavicle
            {
                OFFSET  -0.001000   0.157500   0.000000
                CHANNELS 3 Xrotation Yrotation Zrotation
                JOINT rShoulder
                {
                    OFFSET  -0.117647   0.000000   0.000000
                    CHANNELS 3 Xrotation Yrotation Zrotation
                    JOINT rElbow
                    {
                        OFFSET  -0.245000   0.000000   0.000000
                        CHANNELS 3 Xrotation Yrotation Zrotation
                        JOINT rWrist
                        {
                            OFFSET  -0.240000   0.000000   0.000000
                            CHANNELS 3 Xrotation Yrotation Zrotation
                            End Site
                            {
                                OFFSET  -0.116353  -0.002500   0.000000
                            }
                        }
                    }
                }
            }
            JOINT lTorso_Clavicle
            {
                OFFSET   0.001000   0.157500   0.000000
                CHANNELS 3 Xrotation Yrotation Zrotation
                JOINT lShoulder
                {
                    OFFSET   0.117647   0.000000   0.000000
                    CHANNELS 3 Xrotation Yrotation Zrotation
                    JOINT lElbow
                    {
                        OFFSET   0.245000   0.000000   0.000000
                        CHANNELS 3 Xrotation Yrotation Zrotation
                        JOINT lWrist
                        {
                            OFFSET   0.240000   0.000000   0.000000
                            CHANNELS 3 Xrotation Yrotation Zrotation
                            End Site
                            {
                                OFFSET   0.116353  -0.002500   0.000000
                            }
                        }
                    }
                }
            }
        }
    }
    JOINT rHip
    {
        OFFSET  -0.100000  -0.051395   0.000000
        CHANNELS 3 Xrotation Yrotation Zrotation
        JOINT rKnee
        {
            OFFSET   0.000000  -0.410000   0.000000
            CHANNELS 3 Xrotation Yrotation Zrotation
            JOINT rAnkle
            {
                OFFSET   0.000000  -0.390000   0.000000
                CHANNELS 3 Xrotation Yrotation Zrotation
                JOINT rToeJoint
                {
                    OFFSET   0.000000  -0.050000   0.130000
                    CHANNELS 3 Xrotation Yrotation Zrotation
                    End Site
                    {
                        OFFSET  -0.010000   0.002000   0.060000
                    }
                }
            }
        }
    }
    JOINT lHip
    {
        OFFSET   0.100000  -0.051395   0.000000
        CHANNELS 3 Xrotation Yrotation Zrotation
        JOINT lKnee
        {
            OFFSET   0.000000  -0.410000   0.000000
            CHANNELS 3 Xrotation Yrotation Zrotation
            JOINT lAnkle
            {
                OFFSET   0.000000  -0.390000   0.000000
                CHANNELS 3 Xrotation Yrotation Zrotation
                JOINT lToeJoint
                {
                    OFFSET   0.000000  -0.050000   0.130000
                    CHANNELS 3 Xrotation Yrotation Zrotation
                    End Site
                    {
                        OFFSET   0.010000   0.002000   0.060000
                    }
                }
            }
        }
    }
}
MOTION
Frames: 14
Frame Time:   0.008333
 -2.376719   0.925631   3.975860   0.000000   0.000000   0.000000   0.000000   0.000000   0.000000   0.000000   0.000000   0.000000   0.000000   0.000000   0.000000   0.000000   0.000000   0.000000   0.000000   0.000000   0.000000   0.000000   0.000000   0.000000   0.000000   0.000000   0.000000   0.000000   0.000000   0.000000   0.000000   0.000000   0.000000   0.000000   0.000000   0.000000   0.000000   0.000000   0.000000   0.000000   0.000000   0.000000   0.000000   0.000000   0.000000   0.000000   0.000000   0.000000   0.000000   0.000000   0.000000   0.000000   0.000000   0.000000   0.000000   0.000000   0.000000   0.000000   0.000000   0.000000   0.000000   0.000000   0.000000
 -2.376752   0.926282   3.975807  -0.257353   0.014029  -0.126295   0.313042   0.065900   0.149765   0.134539  -0.177216   0.011456  -0.234495   0.201465   0.038038   0.261928  -0.308429   0.349116   0.943512   0.290543   2.033855   0.016360   0.770474  -0.009468   0.436561  -0.327323  -2.498900   0.370738   0.205831  -0.691634   1.231362  -0.006002  -1.846927   0.007691  -0.351106   0.005510   0.460127   0.020884   2.675543   0.093259  -0.154778   0.071613   0.588857   0.000276  -0.000726  -0.625835  -0.503713  -0.107708  -0.128476  -0.000183   0.000723  -0.046646   0.256967   0.250214   1.028446  -0.001084   0.002446  -0.962058   0.370185   0.031216   0.385638  -0.000518   0.002158
 -2.376849   0.927375   3.975831  -0.552462  -0.007598  -0.257451   0.630116   0.137973   0.294527   0.321195  -0.344454   0.021177  -0.444487   0.394309   0.089135   0.520025  -0.571414   1.426390   1.861254   0.644314   4.649785   0.037804   1.519795  -0.016662   0.912582  -0.433015  -4.235957   0.738686   0.377478  -2.147325   2.445796  -0.060835  -4.320772   0.017594  -0.684426   0.009641   0.969906  -0.006506   4.571580   0.216399  -0.312407   0.082841   1.218703   0.000853  -0.001585  -1.213013  -0.980374  -0.215186  -0.288939  -0.000467   0.001496  -0.055247   0.520795   0.604623   2.122141  -0.002870   0.004357  -1.858490   0.724788   0.069459   0.711855  -0.001125   0.003436
 -2.376992   0.928481   3.975943  -0.831810  -0.055896  -0.376125   0.925639   0.208927   0.416728   0.503182  -0.496905   0.017046  -0.636720   0.573981   0.142275   0.765233  -0.783086   2.950558   2.744695   1.059442   7.647494   0.058777   2.226743  -0.021471   1.376256  -0.451783  -5.138736   1.085797   0.503627  -4.052629   3.635309  -0.188437  -7.203483   0.027353  -0.999372   0.012537   1.465442  -0.070238   5.587817   0.335047  -0.462366   0.025829   1.818405   0.001551  -0.002348  -1.762133  -1.425307  -0.320691  -0.444334  -0.000760   0.002068  -0.050817   0.770301   1.024071   3.166068  -0.004846   0.005512  -2.694458   1.056711   0.111630   1.007734  -0.001737   0.004149
 -2.377168   0.929290   3.976153  -1.085336  -0.124246  -0.482017   1.197100   0.275983   0.515496   0.667657  -0.638122  -0.002079  -0.815738   0.741403   0.193894   0.997795  -0.953273   4.725385   3.592847   1.536369  10.899051   0.076837   2.891780  -0.024405   1.824025  -0.418681  -5.431903   1.409096   0.589410  -6.201130   4.799979  -0.397743 -10.357173   0.035956  -1.299039   0.014520   1.945070  -0.179126   5.961184   0.443207  -0.604029  -0.088936   2.378172   0.002247  -0.002970  -2.276265  -1.840388  -0.423774  -0.594043  -0.001036   0.002470  -0.041332   1.004495   1.490982   4.145437  -0.006747   0.006125  -3.475504   1.366821   0.156548   1.272532  -0.002275   0.004457
 -2.377366   0.929573   3.976470  -1.312676  -0.209794  -0.577290   1.444125   0.337848   0.592812   0.811948  -0.770704  -0.034673  -0.982382   0.897475   0.242834   1.217403  -1.092820   6.619479   4.403766   2.071251  14.316601   0.091024   3.515966  -0.025899   2.254870  -0.351102  -5.321899   1.706673   0.643521  -8.457708   5.937776  -0.689299 -13.688382   0.042959  -1.584427   0.015814   2.408657  -0.330618   5.909165   0.541306  -0.737327  -0.249725   2.899293   0.002876  -0.003457  -2.757641  -2.227507  -0.524027  -0.736981  -0.001280   0.002729  -0.028345   1.223862   1.992832   5.061718  -0.008431   0.006358  -4.205435   1.656378   0.203321   1.509575  -0.002706   0.004488
 -2.377594   0.929156   3.976895  -1.516123  -0.310492  -0.662713   1.666789   0.394426   0.648072   0.936118  -0.895690  -0.085267  -1.137067   1.042900   0.290506   1.424566  -1.212442   8.549446   5.175540   2.657781  17.843310   0.101175   4.100136  -0.026301   2.667562  -0.263891  -4.956404   1.978776   0.676458 -10.756094   7.020900  -1.052138 -17.069969   0.048161  -1.855739   0.016520   2.855705  -0.518700   5.555887   0.631140  -0.862465  -0.445793   3.384909   0.003397  -0.003824  -3.208266  -2.588505  -0.621160  -0.872419  -0.001478   0.002874  -0.011836   1.428983   2.519543   5.919202  -0.009840   0.006331  -4.887549   1.926586   0.251180   1.722478  -0.003027   0.004341
 -2.377842   0.927316   3.977001  -1.550148  -0.397287  -0.783241   1.724451   0.431391   0.774355   1.106519  -1.023471  -0.184664  -1.460091   1.002470   0.273600   1.681294  -1.099391   9.851251   6.081105   3.229832  21.305706   0.111597   4.816931  -0.029843   3.018563  -0.215577  -3.534996   2.241719   0.679667 -12.309296   7.803455  -1.449231 -20.359164   0.055017  -2.233134   0.017853   3.243646  -0.810516   4.021702   0.503049  -1.256623  -0.558423   3.959735   0.003673  -0.005587  -3.374606  -3.030173  -0.474098  -0.880814  -0.001192   0.002366  -0.103747   1.729012   3.028638   6.172578  -0.008641   0.005676  -5.238099   2.275903   0.323825   1.883407  -0.003009   0.004311
 -2.378080   0.924263   3.976929  -1.559582  -0.439890  -0.907390   1.804220   0.458242   0.899329   1.260185  -1.146182  -0.270601  -1.774207   0.956025   0.246058   1.900553  -0.939927  10.900316   6.883842   3.841417  24.425353   0.115139   5.501227  -0.032000   3.369537  -0.082164  -2.161538   2.466010   0.642334 -13.551570   8.503809  -1.875871 -23.288170   0.057814  -2.597154   0.018509   3.610628  -1.181417   2.583571   0.380259  -1.642056  -0.629062   4.504697   0.003644  -0.006610  -3.524313  -3.446037  -0.337992  -0.858869  -0.000939   0.001731  -0.269648   2.011108   3.487356   6.303511  -0.007243   0.004885  -5.569514   2.602948   0.394474   2.035743  -0.002872   0.004252
 -2.378290   0.920117   3.976783  -1.562727  -0.456224  -1.030355   1.899154   0.489225   1.022296   1.408898  -1.255926  -0.340116  -2.065660   0.912374   0.216574   2.086952  -0.763857  11.764752   7.593666   4.464236  27.249748   0.113994   6.147924  -0.032954   3.707562   0.092024  -0.998604   2.660569   0.586796 -14.571609   9.133328  -2.309910 -25.917361   0.057727  -2.940937   0.018513   3.956530  -1.564804   1.398044   0.287631  -2.001780  -0.669864   5.017326   0.003436  -0.007063  -3.662959  -3.834161  -0.211792  -0.835436  -0.000740   0.001227  -0.486432   2.272321   3.892341   6.387629  -0.005965   0.004131  -5.881143   2.907512   0.462280   2.173138  -0.002641   0.004108
 -2.378392   0.919129   3.977028  -1.679557  -0.572062  -0.539413   2.046205   0.563727   0.645532   1.594368  -1.327452  -0.606027  -2.330114   0.872895   0.169909   2.243040  -0.563686  12.798689   8.211601   5.105706  29.952728   0.111587   6.755232  -0.032766   4.031066   0.255720  -0.034350   2.833783   0.528554 -15.600201   9.700120  -2.735445 -28.321118   0.056231  -3.253270   0.017928   4.278777  -1.859561   0.514301   0.329354  -2.323324  -1.245220   5.503381   0.002864  -0.007554  -3.781460  -4.199779  -0.097421  -0.734309  -0.000601   0.000273  -0.777581   2.618465   3.443626   7.175582  -0.004679   0.005110  -5.454624   3.250279   0.352508   2.342360  -0.002005   0.004156
 -2.378878   0.919242   3.977419  -1.760274  -0.436137  -0.519438   2.145254   0.554230   0.736446   1.750193  -1.446055  -0.719857  -2.574818   0.833169   0.119562   2.400004  -0.403428  13.645317   8.770782   5.709778  32.428957   0.106815   7.319312  -0.031951   4.335732   0.425861   0.923748   2.981226   0.461490 -16.564958  10.202494  -3.174418 -30.610511   0.053951  -3.556456   0.016895   4.585193  -2.197100  -0.394230   0.295910  -2.383561  -1.250136   5.844941   0.002212  -0.005838  -3.983192  -4.270778   0.035173  -0.707769  -0.000516   0.000218  -0.952312   2.840338   3.509220   7.666501  -0.003819   0.005747  -5.556608   3.498007   0.373133   2.041057  -0.001441   0.001672
 -2.379512   0.919343   3.977876  -1.804808  -0.354247  -0.488064   2.215424   0.597087   0.790516   1.876908  -1.524491  -0.793220  -2.806385   0.798501   0.087090   2.543551  -0.253805  14.350643   9.269197   6.293153  34.706419   0.100405   7.848776  -0.030669   4.624961   0.607672   1.828883   3.127359   0.418804 -17.358056  10.664072  -3.583472 -32.700002   0.050543  -3.837205   0.015565   4.871722  -2.537954  -1.257967   0.216288  -2.656620  -1.203843   6.207579   0.001409  -0.005267  -4.179528  -4.581882   0.158504  -0.709537  -0.000409   0.000182  -1.063074   3.068704   3.564138   7.991376  -0.003126   0.005543  -5.683748   3.743360   0.414550   2.153060  -0.001239   0.001898
 -2.380248   0.919525   3.978197  -1.787045  -0.246929  -0.450254   2.289333   0.637355   0.767190   1.979717  -1.531234  -0.781763  -3.032470   0.683576   0.032899   2.640487  -0.170756  14.676248   9.693843   6.859337  36.427381   0.090045   8.331486  -0.028957   4.849215   0.953156   3.435378   3.269922   0.433973 -17.642361  10.975098  -4.052147 -34.441518   0.050079  -4.345874   0.015200   5.123663  -2.837460  -2.765084   0.214865  -2.856793  -1.212062   6.246839   0.001111  -0.004244  -4.227941  -4.766976   0.167535  -0.678533  -0.000337   0.000071  -1.117145   3.129556   3.592648   8.070185  -0.002523   0.004561  -5.770025   3.855260   0.451193   2.224151  -0.001040   0.001699
